<svg class="w-72 h-full" width="50" height="51" viewBox="0 0 50 51" fill="none" xmlns="http://www.w3.org/2000/svg" xmlns:dc="http://purl.org/dc/elements/1.1/" xmlns:cc="http://creativecommons.org/ns#" xmlns:rdf="http://www.w3.org/1999/02/22-rdf-syntax-ns#" xmlns:svg="http://www.w3.org/2000/svg">
<path d="M45.1 34.0078C43.4 32.8906 41.6 32.4844 39.6 32.8906C37.6 33.2969 36.1 34.4141 34.9 36.1406C33.7 37.8672 33.3 39.6953 33.7 41.7266C34.1 43.7578 35.1 45.2813 36.7 46.3984C37.2 46.7031 37.6 47.0078 38 47.1094C42 44.5703 45.3001 40.9141 47.4001 36.6484C46.9001 35.6328 46.1 34.7188 45.1 34.0078Z" fill="currentColor"/>
<path d="M34.5 10.1406C33.2 10.1406 32.5 10.8516 32.1 11.9688C31.9 12.4766 31.9 12.8828 31.8 13.2891C31.8 14.1016 31.6 15.2188 31.6 15.5234L29.1 37.3594H25.5L28 14.2031C28.1 11.3594 26.7 10.1406 24.8 10.1406C23.5 10.1406 22.8 10.8516 22.4 11.9688C22.2 12.375 22.2 12.8828 22.1 13.1875C22.1 14 21.9 15.2188 21.9 15.5234L19.4 37.3594H16L18.5 14.1016C18.6 11.2578 17.2 10.0391 15.3 10.0391C14 10.0391 13.3 10.75 12.9 11.8672C12.8 12.0703 12.8 12.375 12.7 12.5781L12 19.1797C12 19.7891 11.7 25.4766 8.4 28.7266C7 30.1484 5.1 30.8594 3 30.8594C2.9 30.8594 2.8 30.8594 2.7 30.8594C2 30.8594 1.3 30.8594 0.5 30.8594C1.9 37.7656 6 43.5547 11.7 47.2109C11.8 47.3125 11.9 47.4141 12 47.4141C12.1 47.5156 12.4 47.6172 12.7 47.7188C13.4 48.125 14 48.4297 14.7 48.7344C15.7 49.1406 16.8 49.6484 18.2 50.0547C20.1 50.5625 22.1 50.9688 24.1 50.9688C25.6 50.9688 26.8 50.9688 27.7 50.7656V50.8672C29.7 50.6641 31.6 50.1562 33.5 49.5469C34 49.4453 34.5 49.1406 35.1 48.8359C33.3 47.6172 32.1 46.0938 31.4 44.1641H15.2C15.1 44.1641 15 44.0625 15 43.9609V43.0469C15 42.9453 15.1 42.8438 15.2 42.8438H31C31 42.6406 30.9 42.4375 30.9 42.2344C30.8 41.7266 30.8 41.3203 30.7 40.8125H15.6C15.5 40.8125 15.4 40.7109 15.4 40.6094V39.6953C15.4 39.5938 15.5 39.4922 15.6 39.4922H30.7C30.8 37.7656 31.4 36.0391 32.5 34.5156C33.4 33.1953 34.5 32.0781 35.9 31.3672L37.8 14.3047C37.8 11.3594 36.4 10.1406 34.5 10.1406ZM25 46.6016C25.6 46.6016 26 47.1094 26 47.7188C26 48.3281 25.5 48.7344 24.9 48.7344C24.3 48.7344 23.9 48.2266 23.9 47.6172C24 47.0078 24.4 46.6016 25 46.6016Z" fill="currentColor"/>
<path d="M25 0.1875C11.2 0.1875 0 11.5625 0 25.5781C0 26.6953 0.1 27.8125 0.2 28.8281C1.1 28.8281 2 28.8281 2.8 28.8281C4.6 28.9297 6 28.3203 7.2 27.2031C10.1 24.3594 10.2 18.9766 10.2 18.9766V18.875L11 12.7812C11 12.6797 11 12.4766 11.1 12.2734C11.1 12.0703 11.2 11.7656 11.3 11.4609C12 9.02344 13.6 7.60156 16.1 7.60156C18.4 7.60156 20.4 8.21094 21.5 9.83594C22.4 8.41406 23.8 7.60156 25.7 7.60156C28 7.60156 30 8.21094 31.1 9.83594C32 8.41406 33.4 7.60156 35.3 7.60156C38.6 7.60156 41.5 9.02344 41.5 12.7812C41.5 13.5937 41.3 15.0156 41.3 15.3203L39.7 29.7422C42.2 29.3359 44.7 29.9453 46.9 31.5703C47.6 32.0781 48.3 32.6875 48.8 33.2969C49.6 30.7578 50 28.1172 50 25.375C50 11.5625 38.8 0.1875 25 0.1875ZM25 4.96094C24.4 4.96094 24 4.45312 24 3.84375C24 3.23437 24.5 2.82812 25.1 2.82812C25.7 2.82812 26.1 3.33594 26.1 3.94531C26.1 4.55469 25.6 5.0625 25 4.96094Z" fill="currentColor"/>
</svg>